<?xml version="1.0" encoding="utf-8"?>
<!-- Generator: Adobe Illustrator 21.0.0, SVG Export Plug-In . SVG Version: 6.00 Build 0)  -->
<svg version="1.1" id="Layer_1" xmlns="http://www.w3.org/2000/svg" xmlns:xlink="http://www.w3.org/1999/xlink" x="0px" y="0px"
	 viewBox="0 0 64 64" style="enable-background:new 0 0 64 64;" xml:space="preserve">
<style type="text/css">
	.st0{fill:#12BC9A;}
</style>
<g>
	<g>
		<circle class="st0" cx="10.4" cy="58.5" r="2.8"/>
		<path class="st0" d="M5,58.5c0,3,2.4,5.4,5.4,5.4c3,0,5.4-2.4,5.4-5.4c0-3-2.4-5.4-5.4-5.4C7.4,53.1,5,55.6,5,58.5z M6.4,58.5
			c0-2.2,1.8-4,4-4c2.2,0,4,1.8,4,4c0,2.2-1.8,4-4,4C8.2,62.5,6.4,60.7,6.4,58.5z"/>
		<circle class="st0" cx="48.9" cy="58.5" r="2.8"/>
		<path class="st0" d="M43.5,58.5c0,3,2.4,5.4,5.4,5.4c3,0,5.4-2.4,5.4-5.4c0-3-2.4-5.4-5.4-5.4C45.9,53.1,43.5,55.6,43.5,58.5z
			 M44.9,58.5c0-2.2,1.8-4,4-4c2.2,0,4,1.8,4,4c0,2.2-1.8,4-4,4C46.6,62.5,44.9,60.7,44.9,58.5z"/>
	</g>
	<path class="st0" d="M0,54.9c0,3.7,1.4,3,1.4,3v1.9h2.7c0,0-0.8-7.5,6.3-7.5c7.2,0,6.5,7.5,6.5,7.5h25.8c0,0-1.1-7.5,6.1-7.5
		c7.2,0,6.3,7.5,6.3,7.5s5.3,0,7.5,0c2.2,0,1-3.4,1-3.4c-3.7-3.8-12.9-6-12.9-6h-8.3c-1.1-0.3-7.2-5.6-7.2-5.6
		C34,43.7,34,44.7,34,44.7l6.1,6.1c0,0-4.4,0-9.1,0c0,0-0.8-3.8-2.3-3.8s-1.2,2.1-0.6,3.8c-1.1,0-2.2,0-3.1,0
		c-5.8,0-6.8-3.9-6.8-3.9c-5.4,0-9,2.9-9,2.9H5L3,47H1.7v4.9C1.7,51.9,0,51.3,0,54.9z M57.9,53.5c0,0,3.3,1.5,4.9,3.1
		C62.8,56.6,58,57.8,57.9,53.5z"/>
</g>
</svg>
