<?xml version="1.0" encoding="utf-8"?>
<!-- Generator: Adobe Illustrator 21.0.0, SVG Export Plug-In . SVG Version: 6.00 Build 0)  -->
<svg version="1.1" id="Layer_1" xmlns="http://www.w3.org/2000/svg" xmlns:xlink="http://www.w3.org/1999/xlink" x="0px" y="0px"
	 viewBox="0 0 64 64" style="enable-background:new 0 0 64 64;" xml:space="preserve">
<style type="text/css">
	.st0{fill:#FFD674;}
</style>
<g>
	<g>
		<circle class="st0" cx="17.5" cy="57.9" r="3"/>
		<path class="st0" d="M11.8,57.9c0,3.2,2.6,5.7,5.7,5.7c3.2,0,5.7-2.6,5.7-5.7c0-3.2-2.6-5.7-5.7-5.7
			C14.4,52.1,11.8,54.7,11.8,57.9z M13.3,57.9c0-2.3,1.9-4.3,4.3-4.3c2.3,0,4.3,1.9,4.3,4.3c0,2.3-1.9,4.3-4.3,4.3
			C15.2,62.1,13.3,60.2,13.3,57.9z"/>
	</g>
	<g>
		<circle class="st0" cx="51.8" cy="57.9" r="3"/>
		<path class="st0" d="M46.1,57.9c0,3.2,2.6,5.7,5.7,5.7c3.2,0,5.7-2.6,5.7-5.7c0-3.2-2.6-5.7-5.7-5.7
			C48.7,52.1,46.1,54.7,46.1,57.9z M47.6,57.9c0-2.3,1.9-4.3,4.3-4.3s4.3,1.9,4.3,4.3c0,2.3-1.9,4.3-4.3,4.3S47.6,60.2,47.6,57.9z"
			/>
	</g>
	<path class="st0" d="M0,56.1c0,3.7,1.8,3,1.8,3l9.4,0c0,0-1.4-7.7,6.4-7.7c7.7,0,6.5,7.7,6.5,7.7l21.4,0c0,0-1.2-7.8,6.5-7.8
		c7.7,0,6.5,7.8,6.5,7.8h4.5c0,0,0.7,0.1,0.7-2.8c0-2.9-1.4-2.8-1.4-2.8s1.5-5.8-13.3-5.8l-7-5.6c0,0,1.4-1-1.3-1
		C37.9,41,13,41,13,41s-1.8,0.5,0,1.2l-5.2,5.3l-5.4,0.3c-0.5,0-0.9,0.4-0.9,0.9V53C1.6,53,0,52.4,0,56.1z M58,49.6
		c0,0,3.3,0.9,3.5,3.9C61.5,53.5,57.6,54.4,58,49.6z M38.5,47.7l-2.8-5.4h5.1l6,5.4H38.5z M15,47.7l2.1-5.4h16.8l2.7,5.4H15z
		 M9.8,47.7l4.3-5.4h1.7l-2.4,5.4H9.8z"/>
</g>
</svg>
