<?xml version="1.0" encoding="utf-8"?>
<!-- Generator: Adobe Illustrator 21.0.0, SVG Export Plug-In . SVG Version: 6.00 Build 0)  -->
<svg version="1.1" id="Layer_1" xmlns="http://www.w3.org/2000/svg" xmlns:xlink="http://www.w3.org/1999/xlink" x="0px" y="0px"
	 viewBox="0 0 64 64" style="enable-background:new 0 0 64 64;" xml:space="preserve">
<style type="text/css">
	.st0{fill:#25ADB3;}
</style>
<g>
	<g>
		<circle class="st0" cx="13.3" cy="57.9" r="3.1"/>
		<path class="st0" d="M7.2,57.9c0,3.3,2.7,6,6,6c3.3,0,6-2.7,6-6c0-3.3-2.7-6-6-6C9.9,51.9,7.2,54.6,7.2,57.9z M8.8,57.9
			c0-2.5,2-4.5,4.5-4.5c2.5,0,4.5,2,4.5,4.5c0,2.5-2,4.5-4.5,4.5C10.8,62.4,8.8,60.4,8.8,57.9z"/>
		<circle class="st0" cx="51.8" cy="57.9" r="3.1"/>
		<path class="st0" d="M45.8,57.9c0,3.3,2.7,6,6,6c3.3,0,6-2.7,6-6c0-3.3-2.7-6-6-6C48.5,51.9,45.8,54.6,45.8,57.9z M47.3,57.9
			c0-2.5,2-4.5,4.5-4.5s4.5,2,4.5,4.5c0,2.5-2,4.5-4.5,4.5S47.3,60.4,47.3,57.9z"/>
	</g>
	<path class="st0" d="M0,40.2v9.2c0,0.4,0.3,0.7,0.7,0.7h1.7v0.7H1.3v7.1h5.1c0,0,0-7,6.9-7c6.9,0,7,7,7,7h24.5c0,0,0.4-7,7-7
		s7.2,7,7.2,7H64v-7.2h-1.3v-1.8c0,0,0.9-3.8-4.5-3.9c-5.4-0.1-12.7-1.3-12.7-1.3l-9.8-9.2h-3v-1.4h3v-1.3H2.4v1.3h4v1.4H3.7
		l-1.3,1.5v3.6H0.7C0.3,39.5,0,39.8,0,40.2z M58.5,45.6c0,0,3.9,0.7,3.5,4.1C62,49.7,57.8,50.4,58.5,45.6z M31.5,34.4h-24v-1.4h24
		V34.4z M23.8,35.7h10.6l7.3,8.2H23.8V35.7z M6.4,35.7h15v8.2h-15V35.7z"/>
</g>
</svg>
